<?xml version="1.0" encoding="UTF-8"?>
<svg version="1.1" xmlns="http://www.w3.org/2000/svg" width="359" height="113">
<path d="M0 0 C7.58637889 5.4944978 14.29864753 11.85463955 18.10546875 20.6171875 C18.30188181 23.58071403 17.04964306 25.0545966 15.42578125 27.49609375 C10.25957565 35.32516542 9.36471041 42.37402677 10.23828125 51.62109375 C11.53754704 56.89852385 13.34763627 61.6307928 16.61328125 65.99609375 C17.14953125 66.86234375 17.68578125 67.72859375 18.23828125 68.62109375 C15.24498133 78.7586233 5.70575741 87.36877772 -3.09765625 92.60546875 C-16.9783007 100.10425145 -31.60497949 101.97602262 -46.953125 97.59375 C-60.41904077 92.93031046 -71.21816454 84.44110406 -78.265625 71.95703125 C-85.26611776 57.45451788 -86.87257604 43.31496049 -81.9453125 27.90234375 C-76.93338922 14.00790297 -68.15025495 3.28076615 -54.76171875 -3.37890625 C-36.93641696 -11.43102534 -16.66529805 -10.9374542 0 0 Z " fill="#D9D9D7" transform="translate(85.76171875,11.37890625)"/>
<path d="M0 0 C4.85518565 4.49075283 8.30721591 8.85541105 8.87890625 15.6484375 C8.87375 16.751875 8.86859375 17.8553125 8.86328125 18.9921875 C8.87101562 20.64734375 8.87101562 20.64734375 8.87890625 22.3359375 C8.43988074 27.55259354 6.6997049 30.76276378 3.23828125 34.6171875 C2.65304688 35.27976563 2.0678125 35.94234375 1.46484375 36.625 C-2.45139682 40.57428901 -4.59132233 41.85748678 -10.37719727 41.91040039 C-11.4956604 41.88901001 -11.4956604 41.88901001 -12.63671875 41.8671875 C-13.40234131 41.85486084 -14.16796387 41.84253418 -14.95678711 41.82983398 C-21.72030433 41.62825068 -26.50697452 41.17859201 -31.59765625 36.4296875 C-38.23529197 29.34954273 -38.81657303 24.61769023 -38.7265625 14.9765625 C-38.00793316 7.6085467 -33.67569363 3.35014842 -28.328125 -1.37890625 C-20.6389468 -5.85007828 -7.02609213 -5.32598847 0 0 Z " fill="#DB2901" transform="translate(70.38671875,38.5078125)"/>
<path d="M0 0 C1.06079773 0.00007553 2.12159546 0.00015106 3.21453857 0.00022888 C4.92253632 0.00797081 4.92253632 0.00797081 6.66503906 0.01586914 C7.83576965 0.01728409 9.00650024 0.01869904 10.21270752 0.02015686 C13.95205235 0.0257545 17.69133732 0.03830659 21.43066406 0.05102539 C23.96581945 0.05604069 26.50097577 0.06060355 29.03613281 0.06469727 C35.25099699 0.07572315 41.46582625 0.09245895 47.68066406 0.11352539 C46.74115331 4.20189867 44.95749755 7.29471505 42.83691406 10.89477539 C38.60597579 19.01360289 39.91460923 31.34866064 41.68066406 40.11352539 C43.10376246 43.01982907 43.10376246 43.01982907 44.68066406 45.11352539 C44.68066406 45.77352539 44.68066406 46.43352539 44.68066406 47.11352539 C33.46066406 47.11352539 22.24066406 47.11352539 10.68066406 47.11352539 C12.33066406 45.46352539 13.98066406 43.81352539 15.68066406 42.11352539 C16.78141434 40.94215176 17.86762943 39.75673046 18.93066406 38.55102539 C19.43082031 37.99286133 19.93097656 37.43469727 20.44628906 36.85961914 C24.10615575 31.68252924 23.20467556 24.12171207 22.68066406 18.11352539 C20.85360543 12.08328524 17.46344394 7.85489685 12.13378906 4.51977539 C7.69938206 2.71390829 4.03305952 2.77900113 -0.69433594 2.92602539 C-1.94150391 2.94632813 -1.94150391 2.94632813 -3.21386719 2.96704102 C-5.24930659 3.0021348 -7.28440884 3.05593311 -9.31933594 3.11352539 C-9.31933594 2.45352539 -9.31933594 1.79352539 -9.31933594 1.11352539 C-6.1451001 0.1752605 -3.30417812 -0.00786709 0 0 Z " fill="#A6A6A6" transform="translate(55.3193359375,32.886474609375)"/>
<path d="M0 0 C3.63 0 7.26 0 11 0 C11.33 0.66 11.66 1.32 12 2 C12.66 1.34 13.32 0.68 14 0 C16.1640625 -0.1953125 16.1640625 -0.1953125 18.625 -0.125 C19.85089844 -0.09792969 19.85089844 -0.09792969 21.1015625 -0.0703125 C22.04128906 -0.03550781 22.04128906 -0.03550781 23 0 C23.33 1.32 23.66 2.64 24 4 C24.33 2.68 24.66 1.36 25 0 C28.63 0 32.26 0 36 0 C34.3943662 22.21126761 34.3943662 22.21126761 32 27 C27 27 22 27 17 27 C16.0925 27.03480469 15.185 27.06960937 14.25 27.10546875 C13.1775 27.13253906 12.105 27.15960938 11 27.1875 C9.39125 27.23970703 9.39125 27.23970703 7.75 27.29296875 C6.8425 27.19628906 5.935 27.09960938 5 27 C3.04297441 24.06446162 2.63427502 22.83240957 2.1484375 19.47265625 C2.01953125 18.59802734 1.890625 17.72339844 1.7578125 16.82226562 C1.63148438 15.91154297 1.50515625 15.00082031 1.375 14.0625 C1.2409375 13.15564453 1.106875 12.24878906 0.96875 11.31445312 C0.41465773 7.47255825 0 3.89457053 0 0 Z " fill="#FB3604" transform="translate(241,37)"/>
<path d="M0 0 C4.85518565 4.49075283 8.30721591 8.85541105 8.87890625 15.6484375 C8.87375 16.751875 8.86859375 17.8553125 8.86328125 18.9921875 C8.87101562 20.64734375 8.87101562 20.64734375 8.87890625 22.3359375 C8.43988074 27.55259354 6.6997049 30.76276378 3.23828125 34.6171875 C2.65304688 35.27976563 2.0678125 35.94234375 1.46484375 36.625 C-2.45139682 40.57428901 -4.59132233 41.85748678 -10.37719727 41.91040039 C-11.4956604 41.88901001 -11.4956604 41.88901001 -12.63671875 41.8671875 C-13.40234131 41.85486084 -14.16796387 41.84253418 -14.95678711 41.82983398 C-21.72030433 41.62825068 -26.50697452 41.17859201 -31.59765625 36.4296875 C-38.23529197 29.34954273 -38.81657303 24.61769023 -38.7265625 14.9765625 C-38.00793316 7.6085467 -33.67569363 3.35014842 -28.328125 -1.37890625 C-20.6389468 -5.85007828 -7.02609213 -5.32598847 0 0 Z M-27.81640625 6.3671875 C-31.339806 11.78167752 -32.83299514 15.90961078 -32.38671875 22.4921875 C-30.51162141 27.78658 -27.22611504 32.54609888 -22.38671875 35.4921875 C-16.46037038 36.53287334 -9.78106456 36.32421905 -4.38671875 33.4921875 C-1.29038074 30.47445718 -1.29038074 30.47445718 -0.38671875 26.4921875 C0.60328125 26.1621875 1.59328125 25.8321875 2.61328125 25.4921875 C3.15995992 17.59182152 3.15995992 17.59182152 1.05078125 10.1171875 C0.24640625 9.2509375 -0.55796875 8.3846875 -1.38671875 7.4921875 C-1.84949219 6.9353125 -2.31226562 6.3784375 -2.7890625 5.8046875 C-5.45598778 2.98778842 -7.42160194 1.65152893 -11.296875 1.01171875 C-17.69411328 0.84524787 -23.6516007 0.90514743 -27.81640625 6.3671875 Z " fill="#EE350B" transform="translate(70.38671875,38.5078125)"/>
<path d="M0 0 C1.1765918 0.01450195 1.1765918 0.01450195 2.37695312 0.02929688 C8.14393877 0.14393877 8.14393877 0.14393877 9.3125 1.3125 C9.57543056 5.34410191 9.60654844 6.87142734 7.3125 10.3125 C7.786875 10.663125 8.26125 11.01375 8.75 11.375 C11.08351487 14.26855843 11.18606532 16.6458943 11.3125 20.3125 C9.72411066 23.88637602 8.59615642 25.12339572 5.3125 27.3125 C2.59965129 27.53378109 0.02330614 27.63705875 -2.6875 27.625 C-3.77417969 27.64916992 -3.77417969 27.64916992 -4.8828125 27.67382812 C-7.91366335 27.67662411 -10.12766993 27.67850109 -12.70703125 25.9921875 C-14.25875478 23.33385636 -13.3904015 21.18800612 -12.6875 18.3125 C-11.6975 17.9825 -10.7075 17.6525 -9.6875 17.3125 C-10.17347656 16.91933594 -10.65945313 16.52617188 -11.16015625 16.12109375 C-13.14120599 13.77524712 -13.12043005 12.41401562 -13.125 9.375 C-13.14433594 8.52035156 -13.16367187 7.66570313 -13.18359375 6.78515625 C-11.71685212 -0.5254536 -6.17498387 -0.23175502 0 0 Z M-1.6875 8.3125 C-1.6875 8.6425 -1.6875 8.9725 -1.6875 9.3125 C-0.0375 9.3125 1.6125 9.3125 3.3125 9.3125 C3.3125 8.9825 3.3125 8.6525 3.3125 8.3125 C1.6625 8.3125 0.0125 8.3125 -1.6875 8.3125 Z M-6.6875 18.3125 C-6.6875 18.6425 -6.6875 18.9725 -6.6875 19.3125 C-4.7075 19.3125 -2.7275 19.3125 -0.6875 19.3125 C-0.6875 18.9825 -0.6875 18.6525 -0.6875 18.3125 C-2.6675 18.3125 -4.6475 18.3125 -6.6875 18.3125 Z " fill="#FA3807" transform="translate(317.6875,36.6875)"/>
<path d="M0 0 C4.95 0 9.9 0 15 0 C16.9396649 4.84916225 18.34936703 9.59270509 19.6875 14.625 C19.92533203 15.48351563 20.16316406 16.34203125 20.40820312 17.2265625 C20.62798828 18.0515625 20.84777344 18.8765625 21.07421875 19.7265625 C21.37718872 20.84925537 21.37718872 20.84925537 21.6862793 21.99462891 C22 24 22 24 21 27 C17.7 27 14.4 27 11 27 C10.67 26.01 10.34 25.02 10 24 C8.35 23.67 6.7 23.34 5 23 C4.67 24.32 4.34 25.64 4 27 C0.7 27 -2.6 27 -6 27 C-5.37547911 20.79786153 -4.0842258 15.00570586 -2.4375 9 C-2.20353516 8.12988281 -1.96957031 7.25976562 -1.72851562 6.36328125 C-1.15710524 4.24089983 -0.57922482 2.12026209 0 0 Z " fill="#FB3503" transform="translate(154,37)"/>
<path d="M0 0 C1.18916016 0.02707031 1.18916016 0.02707031 2.40234375 0.0546875 C4.35208348 0.10166918 6.30119878 0.17340956 8.25 0.25 C8.5 6.875 8.5 6.875 6.25 10.25 C7.24 10.91 8.23 11.57 9.25 12.25 C10.55794614 16.46357332 10.69476638 20.18256068 9 24.25 C7.25 26.25 7.25 26.25 4.25 27.25 C1.73658719 27.37170805 -0.73690901 27.43510658 -3.25 27.4375 C-4.26513672 27.45586914 -4.26513672 27.45586914 -5.30078125 27.47460938 C-9.01357044 27.48559396 -10.57983076 27.36344616 -13.75 25.25 C-13.42 22.94 -13.09 20.63 -12.75 18.25 C-10.77 18.25 -8.79 18.25 -6.75 18.25 C-7.554375 17.775625 -8.35875 17.30125 -9.1875 16.8125 C-11.75 15.25 -11.75 15.25 -12.75 14.25 C-12.98828125 12.10546875 -12.98828125 12.10546875 -13.0625 9.4375 C-13.09988281 8.56480469 -13.13726562 7.69210938 -13.17578125 6.79296875 C-12.75 4.25 -12.75 4.25 -11.27734375 1.94140625 C-7.56731768 -0.54150146 -4.3547937 -0.18776888 0 0 Z M-1.75 8.25 C-1.75 8.58 -1.75 8.91 -1.75 9.25 C-0.1 9.25 1.55 9.25 3.25 9.25 C3.25 8.92 3.25 8.59 3.25 8.25 C1.6 8.25 -0.05 8.25 -1.75 8.25 Z " fill="#FB3704" transform="translate(195.75,36.75)"/>
<path d="M0 0 C6.93 0 13.86 0 21 0 C20.67 2.64 20.34 5.28 20 8 C17.03 8 14.06 8 11 8 C11 8.66 11 9.32 11 10 C13.64 10 16.28 10 19 10 C19 12.31 19 14.62 19 17 C16.36 17 13.72 17 11 17 C11 17.66 11 18.32 11 19 C14.3 19 17.6 19 21 19 C21.04241723 21.33294775 21.04092937 23.66702567 21 26 C20 27 20 27 18.05053711 27.11352539 C17.2178833 27.10828857 16.38522949 27.10305176 15.52734375 27.09765625 C14.71773193 27.09515869 13.90812012 27.09266113 13.07397461 27.09008789 C12.03893799 27.08098389 11.00390137 27.07187988 9.9375 27.0625 C6.658125 27.041875 3.37875 27.02125 0 27 C0 18.09 0 9.18 0 0 Z " fill="#F83A09" transform="translate(337,37)"/>
<path d="M0 0 C1.88138672 0.05414063 1.88138672 0.05414063 3.80078125 0.109375 C5.22970703 0.17898437 5.22970703 0.17898437 6.6875 0.25 C7.94291557 4.01624671 7.05811958 5.62188934 5.6875 9.25 C3.0475 8.92 0.4075 8.59 -2.3125 8.25 C-1.9825 11.55 -1.6525 14.85 -1.3125 18.25 C1.3275 18.25 3.9675 18.25 6.6875 18.25 C7.3125 21.625 7.3125 21.625 7.6875 25.25 C5.01598149 27.92151851 3.59567468 27.54873672 -0.125 27.5625 C-1.68154297 27.58763672 -1.68154297 27.58763672 -3.26953125 27.61328125 C-6.71854559 27.20152472 -8.54263358 26.31410639 -11.3125 24.25 C-14.74500637 19.10124045 -14.65470119 13.37164735 -13.6875 7.375 C-10.80931689 0.83367475 -6.82681882 -0.25520818 0 0 Z " fill="#FA3807" transform="translate(134.3125,36.75)"/>
<path d="M0 0 C7.26 0 14.52 0 22 0 C22 2.64 22 5.28 22 8 C20.02 8 18.04 8 16 8 C16 14.27 16 20.54 16 27 C12.7 27 9.4 27 6 27 C5.67 20.73 5.34 14.46 5 8 C3.35 7.67 1.7 7.34 0 7 C0 4.69 0 2.38 0 0 Z " fill="#FA3705" transform="translate(213,37)"/>
<path d="M0 0 C4.97552923 2.8160388 8.50046694 6.88047446 11 12 C11.29296875 15.11328125 11.29296875 15.11328125 11.1875 18.3125 C11.14689453 19.91544922 11.14689453 19.91544922 11.10546875 21.55078125 C11.07066406 22.35902344 11.03585938 23.16726562 11 24 C10.01 24.33 9.02 24.66 8 25 C7.31513275 26.32407669 6.65129797 27.65909241 6 29 C2.60219992 32.96410009 0.30668605 33.68035922 -4.734375 34.37890625 C-12.66552507 34.86176124 -12.66552507 34.86176124 -16.4921875 32.390625 C-20.99730757 28.00102083 -23.65688677 24.03083352 -24.375 17.6875 C-23.80318794 12.0646814 -21.61936786 7.92299933 -18 3.625 C-12.56821835 -0.78832259 -6.79288552 -1.14809333 0 0 Z M-19.5 9.125 C-20.51243448 14.94649823 -21.10273364 20.60027659 -18.3125 26 C-15.34387167 29.85119351 -13.67346789 30.63124581 -8.9609375 31.28125 C-3.5339332 31.65423999 -0.14496809 30.44034275 4.37109375 27.484375 C6.94721328 25.13683202 7.86956917 23.04175273 8.30078125 19.59765625 C8.40937767 12.74039063 8.40937767 12.74039063 5 7 C0.71850613 3.89381817 -2.47241861 2.30411821 -7.94140625 2.61328125 C-12.58287271 3.48520759 -16.73462001 5.20737834 -19.5 9.125 Z " fill="#D22502" transform="translate(62,40)"/>
<path d="M0 0 C3.63 0 7.26 0 11 0 C11.02886537 4.31248609 11.04675255 8.62494762 11.0625 12.9375 C11.07087891 14.16919922 11.07925781 15.40089844 11.08789062 16.66992188 C11.09111328 17.83974609 11.09433594 19.00957031 11.09765625 20.21484375 C11.10289307 21.29886475 11.10812988 22.38288574 11.11352539 23.49975586 C11 26 11 26 10 27 C6.7 27 3.4 27 0 27 C0 18.09 0 9.18 0 0 Z " fill="#F83A0A" transform="translate(285,37)"/>
<path d="M0 0 C3.11719813 0.96740632 4.00476588 2.00765945 5.75 4.8125 C8.06731635 10.82739217 8.06541357 18.5206784 6.19140625 24.640625 C4.91953262 27.1593518 3.50809965 29.02809864 1.625 31.125 C1.03976563 31.78757812 0.45453125 32.45015625 -0.1484375 33.1328125 C-4.06463137 37.08205442 -6.20545363 38.36737318 -11.99194336 38.41699219 C-13.1096814 38.39620605 -13.1096814 38.39620605 -14.25 38.375 C-15.01127197 38.36629883 -15.77254395 38.35759766 -16.55688477 38.34863281 C-21.94984589 38.20742855 -26.24060356 37.71965511 -31 35 C-32.5 32.8125 -32.5 32.8125 -33 31 C-30.26844845 32.04441677 -27.82242908 33.10736847 -25.3125 34.625 C-19.98173983 36.83776837 -14.52770771 36.86049624 -9.0625 35 C-8.0415625 34.505 -8.0415625 34.505 -7 34 C-6.01 34 -5.02 34 -4 34 C-4.61875 32.6696875 -4.61875 32.6696875 -5.25 31.3125 C-6 28 -6 28 -4.25 25.1875 C-2 23 -2 23 0 22 C0.44701413 14.43801103 0.53574091 9.23664375 -4 3 C-3.01 2.67 -2.02 2.34 -1 2 C-0.67 1.34 -0.34 0.68 0 0 Z " fill="#EA3A11" transform="translate(72,42)"/>
<path d="M0 0 C4.27121634 0.7493362 6.44489913 1.58343817 9.5625 4.625 C10.36781493 8.47347617 9.8016866 11.90744019 8.5625 15.625 C6.10455343 18.17748298 4.68329083 18.60962662 1.125 19.0625 C-3.12666301 18.54036595 -4.6646667 17.88715682 -7.4375 14.625 C-8.75541832 11.18376882 -9.13395035 8.19698793 -7.6171875 4.7734375 C-5.3968697 1.67087421 -3.72320469 0.67694631 0 0 Z " fill="#F23504" transform="translate(54.4375,47.375)"/>
<path d="M0 0 C0.33 0.66 0.66 1.32 1 2 C2.8871875 1.690625 2.8871875 1.690625 4.8125 1.375 C8.4014758 0.78664331 8.75073878 0.83382585 12 3 C12.6171875 4.98828125 12.6171875 4.98828125 12.875 7.3125 C13.02582031 8.45138672 13.02582031 8.45138672 13.1796875 9.61328125 C12.93033238 12.92536774 12.20684716 14.50473321 10 17 C7.28951668 17.41320224 5.24569805 17.52420948 2.5625 17.375 C1.24378906 17.34148438 -0.07492188 17.30796875 -1.43359375 17.2734375 C-4.13539047 17.06628989 -6.43253745 16.80110085 -9 16 C-8.67 14.35 -8.34 12.7 -8 11 C-4.37 11.33 -0.74 11.66 3 12 C2.67 11.01 2.34 10.02 2 9 C-1.51190809 7.77030122 -1.51190809 7.77030122 -5 7 C-5 6.01 -5 5.02 -5 4 C-2.5 1.8125 -2.5 1.8125 0 0 Z " fill="#FB3604" transform="translate(193,46)"/>
<path d="M0 0 C2.67508832 2.67508832 2.3543109 4.39501291 2.6875 8.125 C3.60927409 14.94008384 5.94131453 18.48648615 11 23 C11.33 23.33 11.66 23.66 12 24 C18.73055151 24.366142 25.3466687 24.02358943 32 23 C32 24.32 32 25.64 32 27 C25.88458768 29.71796103 20.70054951 30.84460708 14 30 C10.6875 28.6875 10.6875 28.6875 8 27 C7.071875 26.525625 6.14375 26.05125 5.1875 25.5625 C3 24 3 24 2.1875 21.8125 C2.0946875 20.9153125 2.0946875 20.9153125 2 20 C1.34 20 0.68 20 0 20 C-0.19916016 19.04287109 -0.19916016 19.04287109 -0.40234375 18.06640625 C-0.57894531 17.24011719 -0.75554688 16.41382812 -0.9375 15.5625 C-1.11152344 14.73878906 -1.28554688 13.91507813 -1.46484375 13.06640625 C-1.80752994 11.02338796 -1.80752994 11.02338796 -3 10 C-3.04092937 7.66702567 -3.04241723 5.33294775 -3 3 C-2.34 3 -1.68 3 -1 3 C-0.67 2.01 -0.34 1.02 0 0 Z " fill="#F13205" transform="translate(36,49)"/>
<path d="M0 0 C0.77601563 -0.00257812 1.55203125 -0.00515625 2.3515625 -0.0078125 C4.375 0.125 4.375 0.125 6.375 1.125 C6.375 3.435 6.375 5.745 6.375 8.125 C3.075 7.795 -0.225 7.465 -3.625 7.125 C-3.625 8.115 -3.625 9.105 -3.625 10.125 C-0.985 10.785 1.655 11.445 4.375 12.125 C3.715 14.105 3.055 16.085 2.375 18.125 C0.7684324 17.86879316 -0.8352483 17.59444129 -2.4375 17.3125 C-3.33082031 17.16167969 -4.22414063 17.01085937 -5.14453125 16.85546875 C-7.88674025 16.04792059 -8.99201195 15.45707771 -10.625 13.125 C-10.98828125 10.96875 -10.98828125 10.96875 -10.9375 8.625 C-10.93363281 7.8515625 -10.92976563 7.078125 -10.92578125 6.28125 C-10.625 4.125 -10.625 4.125 -8.625 1.125 C-5.7635288 0.06564683 -3.03134132 -0.01013827 0 0 Z " fill="#FC3403" transform="translate(318.625,36.875)"/>
<path d="M0 0 C1.28132812 0.00902344 2.56265625 0.01804688 3.8828125 0.02734375 C4.87023437 0.03894531 5.85765625 0.05054688 6.875 0.0625 C8.13041557 3.82874671 7.24561958 5.43438934 5.875 9.0625 C3.235 8.7325 0.595 8.4025 -2.125 8.0625 C-1.795 11.3625 -1.465 14.6625 -1.125 18.0625 C1.515 18.0625 4.155 18.0625 6.875 18.0625 C7.205 20.3725 7.535 22.6825 7.875 25.0625 C7.215 25.3925 6.555 25.7225 5.875 26.0625 C5.215 24.4125 4.555 22.7625 3.875 21.0625 C2.575625 20.918125 1.27625 20.77375 -0.0625 20.625 C-4 20.1875 -4 20.1875 -5.125 19.0625 C-5.25024459 17.27412378 -5.30073676 15.48021786 -5.3125 13.6875 C-5.32667969 12.71039063 -5.34085938 11.73328125 -5.35546875 10.7265625 C-5.125 8.0625 -5.125 8.0625 -3.125 5.0625 C-3.455 4.4025 -3.785 3.7425 -4.125 3.0625 C-5.445 3.0625 -6.765 3.0625 -8.125 3.0625 C-9.115 6.0325 -10.105 9.0025 -11.125 12.0625 C-11.785 12.0625 -12.445 12.0625 -13.125 12.0625 C-13.455 13.3825 -13.785 14.7025 -14.125 16.0625 C-13.70973282 5.36937023 -13.70973282 5.36937023 -9.125 1.0625 C-6.12186252 -0.43906874 -3.33432478 -0.03031204 0 0 Z " fill="#F63C0C" transform="translate(134.125,36.9375)"/>
<path d="M0 0 C4.95 0 9.9 0 15 0 C16.9396649 4.84916225 18.34936703 9.59270509 19.6875 14.625 C19.92533203 15.48351563 20.16316406 16.34203125 20.40820312 17.2265625 C20.62798828 18.0515625 20.84777344 18.8765625 21.07421875 19.7265625 C21.37718872 20.84925537 21.37718872 20.84925537 21.6862793 21.99462891 C22 24 22 24 21 27 C17.7 27 14.4 27 11 27 C10.67 26.01 10.34 25.02 10 24 C8.35 23.67 6.7 23.34 5 23 C4.67 24.32 4.34 25.64 4 27 C0.7 27 -2.6 27 -6 27 C-5.37547911 20.79786153 -4.0842258 15.00570586 -2.4375 9 C-2.20353516 8.12988281 -1.96957031 7.25976562 -1.72851562 6.36328125 C-1.15710524 4.24089983 -0.57922482 2.12026209 0 0 Z M2 1 C1.01 6.28 0.02 11.56 -1 17 C-1.66 17 -2.32 17 -3 17 C-3.33425735 19.37374861 -3.33425735 19.37374861 -3 22 C-1.0995533 23.84315671 -1.0995533 23.84315671 1 25 C1.99 24.34 2.98 23.68 4 23 C8.07490752 22.66042437 9.53001271 22.68667514 13 25 C16.12521833 25.16699232 16.12521833 25.16699232 19 25 C18.17068629 18.95785724 17.09116179 13.13729863 15.5 7.25 C15.2421875 6.28578125 14.984375 5.3215625 14.71875 4.328125 C14.21762087 2.06193616 14.21762087 2.06193616 13 1 C9.3308423 0.85689713 5.67284559 0.95778338 2 1 Z " fill="#E85026" transform="translate(154,37)"/>
<path d="M0 0 C1.6640625 1.09375 1.6640625 1.09375 4.1640625 3.09375 C3.8340625 4.08375 3.5040625 5.07375 3.1640625 6.09375 C3.1640625 5.43375 3.1640625 4.77375 3.1640625 4.09375 C2.5453125 3.949375 1.9265625 3.805 1.2890625 3.65625 C-0.8359375 3.09375 -0.8359375 3.09375 -2.8359375 2.09375 C-7.80661532 1.7186045 -10.88745252 1.93496201 -14.8359375 5.09375 C-17.4076914 8.5227552 -17.12295094 11.93205511 -16.8359375 16.09375 C-16.29457516 19.38767113 -16.29457516 19.38767113 -14.8359375 22.09375 C-11.00564182 24.50136443 -7.26648145 24.41021742 -2.8359375 24.09375 C-0.00518202 23.41381573 -0.00518202 23.41381573 2.1640625 22.09375 C2.4940625 21.10375 2.8240625 20.11375 3.1640625 19.09375 C3.8240625 19.09375 4.4840625 19.09375 5.1640625 19.09375 C4.93476193 22.30395798 4.10212415 23.14949452 1.6640625 25.34375 C-3.58292237 27.96724243 -7.99263728 27.66241004 -13.6484375 26.53125 C-16.93497745 24.37152374 -18.59904398 21.74425737 -19.8359375 18.09375 C-20.46175987 13.13352822 -20.80286777 7.29690122 -17.8359375 3.09375 C-12.6574056 -0.66006618 -6.11489056 -3.01841406 0 0 Z " fill="#E32F08" transform="translate(61.8359375,43.90625)"/>
<path d="M0 0 C0.66 0.99 1.32 1.98 2 3 C0.625 4.5 0.625 4.5 -1 6 C-1.66 6 -2.32 6 -3 6 C-3.268125 6.70125 -3.53625 7.4025 -3.8125 8.125 C-5.0681449 11.1649824 -6.50235123 14.0727774 -8 17 C-8.99 15.68 -9.98 14.36 -11 13 C-11.33 13.66 -11.66 14.32 -12 15 C-12.66 15 -13.32 15 -14 15 C-13.60045258 18.39615311 -13.22512852 21.44380013 -11.9375 24.625 C-10.90247867 27.24705404 -10.84040221 29.20703859 -11 32 C-10.34 32 -9.68 32 -9 32 C-8.67 33.32 -8.34 34.64 -8 36 C-11.45508381 34.8483054 -12.10703624 34.01153326 -14 31 C-16.05220982 24.74361033 -16.31445707 16.53326061 -14.0234375 10.375 C-11.84252686 6.735689 -10.01234399 4.58627553 -6 3 C-5.01 3 -4.02 3 -3 3 C-3 2.34 -3 1.68 -3 1 C-2.01 0.67 -1.02 0.34 0 0 Z " fill="#EE3205" transform="translate(47,37)"/>
<path d="M0 0 C0.66 0 1.32 0 2 0 C2.33 2.97 2.66 5.94 3 9 C3.33 9 3.66 9 4 9 C4.04898438 9.90363281 4.09796875 10.80726562 4.1484375 11.73828125 C4.22320312 12.91777344 4.29796875 14.09726562 4.375 15.3125 C4.47941406 17.07013672 4.47941406 17.07013672 4.5859375 18.86328125 C4.78613747 22.15699887 4.78613747 22.15699887 7 25 C9.19454681 25.57993699 9.19454681 25.57993699 11.625 25.6875 C12.44226563 25.75324219 13.25953125 25.81898437 14.1015625 25.88671875 C14.72804687 25.92410156 15.35453125 25.96148437 16 26 C16.66 24.68 17.32 23.36 18 22 C18.39832031 22.48082031 18.79664063 22.96164063 19.20703125 23.45703125 C21.43450247 25.37391825 22.78834669 25.47741643 25.6875 25.6875 C26.49574219 25.75324219 27.30398438 25.81898437 28.13671875 25.88671875 C28.75160156 25.92410156 29.36648438 25.96148437 30 26 C30.03738281 25.20078125 30.07476562 24.4015625 30.11328125 23.578125 C30.57413645 15.8791322 31.3688154 8.30185199 34 1 C34.66 0.67 35.32 0.34 36 0 C34.49269311 22.01461378 34.49269311 22.01461378 32 27 C27 27 22 27 17 27 C16.0925 27.03480469 15.185 27.06960937 14.25 27.10546875 C13.1775 27.13253906 12.105 27.15960938 11 27.1875 C9.39125 27.23970703 9.39125 27.23970703 7.75 27.29296875 C6.8425 27.19628906 5.935 27.09960938 5 27 C3.04297441 24.06446162 2.63427502 22.83240957 2.1484375 19.47265625 C2.01953125 18.59802734 1.890625 17.72339844 1.7578125 16.82226562 C1.63148438 15.91154297 1.50515625 15.00082031 1.375 14.0625 C1.2409375 13.15564453 1.106875 12.24878906 0.96875 11.31445312 C0.41465773 7.47255825 0 3.89457053 0 0 Z " fill="#E65E3A" transform="translate(241,37)"/>
<path d="M0 0 C6.93 0 13.86 0 21 0 C20.67 2.64 20.34 5.28 20 8 C17.03 8 14.06 8 11 8 C11 7.67 11 7.34 11 7 C12.98 6.67 14.96 6.34 17 6 C17.33 4.35 17.66 2.7 18 1 C17.01 1.33 16.02 1.66 15 2 C11.37 2 7.74 2 4 2 C3.67 9.92 3.34 17.84 3 26 C8.61 26 14.22 26 20 26 C20 26.33 20 26.66 20 27 C13.4 27 6.8 27 0 27 C0 18.09 0 9.18 0 0 Z " fill="#E54C26" transform="translate(337,37)"/>
<path d="M0 0 C7.26 0 14.52 0 22 0 C22 2.64 22 5.28 22 8 C20.02 8 18.04 8 16 8 C16 14.27 16 20.54 16 27 C12.7 27 9.4 27 6 27 C5.67 20.73 5.34 14.46 5 8 C3.35 7.67 1.7 7.34 0 7 C0 4.69 0 2.38 0 0 Z M2 1 C2 2.98 2 4.96 2 7 C3.98 7.99 3.98 7.99 6 9 C6.33 14.61 6.66 20.22 7 26 C9.31 26 11.62 26 14 26 C14 19.73 14 13.46 14 7 C15.98 6.67 17.96 6.34 20 6 C20 4.35 20 2.7 20 1 C14.06 1 8.12 1 2 1 Z " fill="#DD5432" transform="translate(213,37)"/>
<path d="M0 0 C2.96575394 3.47709083 5.01540239 6.89432815 7 11 C5.8039917 11.02505615 4.6079834 11.0501123 3.37573242 11.07592773 C-1.05797195 11.17003852 -5.491521 11.27025036 -9.92504883 11.37231445 C-11.84460825 11.4156494 -13.76420585 11.45732552 -15.68383789 11.49731445 C-18.44168614 11.55505178 -21.19934241 11.61873635 -23.95703125 11.68359375 C-24.81649857 11.70030624 -25.67596588 11.71701874 -26.56147766 11.73423767 C-27.36208115 11.75418289 -28.16268463 11.77412811 -28.98754883 11.79467773 C-29.6914827 11.81022202 -30.39541656 11.8257663 -31.12068176 11.84178162 C-33.22699083 11.94481604 -33.22699083 11.94481604 -36 13 C-38.06145107 13.068991 -40.12501401 13.08467727 -42.1875 13.0625 C-43.81751953 13.04896484 -43.81751953 13.04896484 -45.48046875 13.03515625 C-46.31191406 13.02355469 -47.14335938 13.01195313 -48 13 C-48.33 12.01 -48.66 11.02 -49 10 C-51.01508358 9.26676204 -51.01508358 9.26676204 -53 9 C-52.34 8.67 -51.68 8.34 -51 8 C-50.01 8.33 -49.02 8.66 -48 9 C-46.32849013 9.11513832 -44.6530037 9.17636784 -42.9777832 9.20532227 C-41.44653557 9.2352401 -41.44653557 9.2352401 -39.88435364 9.26576233 C-38.78427475 9.28247482 -37.68419586 9.29918732 -36.55078125 9.31640625 C-34.85915108 9.3475779 -34.85915108 9.3475779 -33.13334656 9.37937927 C-29.5264604 9.44482847 -25.91950071 9.50373844 -22.3125 9.5625 C-19.86913298 9.60568961 -17.42577344 9.64930404 -14.98242188 9.69335938 C-8.98835926 9.80050516 -2.99422329 9.90228029 3 10 C1.9790625 8.3603125 1.9790625 8.3603125 0.9375 6.6875 C-0.22265625 4.82421875 -0.22265625 4.82421875 -1 3 C-0.67 2.01 -0.34 1.02 0 0 Z " fill="#C4C2C1" transform="translate(97,70)"/>
<path d="M0 0 C0.33 0 0.66 0 1 0 C1 8.58 1 17.16 1 26 C3.31 26 5.62 26 8 26 C8 17.75 8 9.5 8 1 C7.34 0.67 6.68 0.34 6 0 C7.65 0 9.3 0 11 0 C11.02886537 4.31248609 11.04675255 8.62494762 11.0625 12.9375 C11.07087891 14.16919922 11.07925781 15.40089844 11.08789062 16.66992188 C11.09111328 17.83974609 11.09433594 19.00957031 11.09765625 20.21484375 C11.10289307 21.29886475 11.10812988 22.38288574 11.11352539 23.49975586 C11 26 11 26 10 27 C6.7 27 3.4 27 0 27 C0 18.09 0 9.18 0 0 Z " fill="#E05428" transform="translate(285,37)"/>
<path d="M0 0 C1.32 0.33 2.64 0.66 4 1 C4.25 6.625 4.25 6.625 2 10 C2.474375 10.350625 2.94875 10.70125 3.4375 11.0625 C5.77101487 13.95605843 5.87356532 16.3333943 6 20 C4.41161066 23.57387602 3.28365642 24.81089572 0 27 C-2.76655324 27.14245897 -5.42653306 27.18769445 -8.1875 27.125 C-8.93708984 27.11597656 -9.68667969 27.10695313 -10.45898438 27.09765625 C-12.30612654 27.07412578 -14.15310412 27.03825561 -16 27 C-16 26.67 -16 26.34 -16 26 C-14.95199219 25.97421875 -13.90398437 25.9484375 -12.82421875 25.921875 C-11.44527098 25.86559142 -10.06636635 25.80824412 -8.6875 25.75 C-7.99720703 25.73582031 -7.30691406 25.72164062 -6.59570312 25.70703125 C-3.35948833 25.55069237 -1.45930659 25.42285369 0.96875 23.1875 C2.43134365 20.08502861 2.19485607 17.37750518 2 14 C-2.95 12.02 -2.95 12.02 -8 10 C-8 9.01 -8 8.02 -8 7 C-0.25 6.875 -0.25 6.875 2 8 C2 5.69 2 3.38 2 1 C1.34 0.67 0.68 0.34 0 0 Z M-7 8 C-7 8.33 -7 8.66 -7 9 C-5.35 9 -3.7 9 -2 9 C-2 8.67 -2 8.34 -2 8 C-3.65 8 -5.3 8 -7 8 Z " fill="#EB5C36" transform="translate(323,37)"/>
<path d="M0 0 C2.1640625 -0.29296875 2.1640625 -0.29296875 4.625 -0.1875 C5.44226562 -0.16042969 6.25953125 -0.13335937 7.1015625 -0.10546875 C8.04128906 -0.05326172 8.04128906 -0.05326172 9 0 C9.33 1.65 9.66 3.3 10 5 C9.34 5 8.68 5 8 5 C7.67 4.34 7.34 3.68 7 3 C5.35 3 3.7 3 2 3 C1.61781233 4.65614657 1.28604898 6.32457024 1 8 C1.33 8.33 1.66 8.66 2 9 C3.91424457 8.8981629 3.91424457 8.8981629 6.0625 8.5625 C8.0115625 8.2840625 8.0115625 8.2840625 10 8 C8.125 11.875 8.125 11.875 7 13 C4.66055264 12.71269945 2.3260857 12.38063221 0 12 C-0.33 12.66 -0.66 13.32 -1 14 C-2.98793067 12.61709171 -3.88705658 11.43832802 -4.4921875 9.08984375 C-4.8125 6.9375 -4.8125 6.9375 -5 3 C-4.34 2.34 -3.68 1.68 -3 1 C-2.67 1.66 -2.34 2.32 -2 3 C-1.34 2.01 -0.68 1.02 0 0 Z " fill="#EA2E01" transform="translate(51,51)"/>
<path d="M0 0 C1.23556641 0.01740234 1.23556641 0.01740234 2.49609375 0.03515625 C3.32238281 0.04417969 4.14867187 0.05320313 5 0.0625 C5.63808594 0.07410156 6.27617187 0.08570313 6.93359375 0.09765625 C7.26359375 1.41765625 7.59359375 2.73765625 7.93359375 4.09765625 C8.26359375 2.77765625 8.59359375 1.45765625 8.93359375 0.09765625 C12.23359375 0.09765625 15.53359375 0.09765625 18.93359375 0.09765625 C18.60359375 1.74765625 18.27359375 3.39765625 17.93359375 5.09765625 C17.60359375 3.77765625 17.27359375 2.45765625 16.93359375 1.09765625 C16.31484375 1.28328125 15.69609375 1.46890625 15.05859375 1.66015625 C12.93359375 2.09765625 12.93359375 2.09765625 10.93359375 1.09765625 C10.94519531 1.68933594 10.95679688 2.28101563 10.96875 2.890625 C11.01681761 7.0999741 10.99366258 10.98988955 9.93359375 15.09765625 C8.94359375 15.09765625 7.95359375 15.09765625 6.93359375 15.09765625 C5.48174897 10.56064131 4.69850179 6.91704149 4.93359375 2.09765625 C3.28359375 1.76765625 1.63359375 1.43765625 -0.06640625 1.09765625 C-0.72640625 2.41765625 -1.38640625 3.73765625 -2.06640625 5.09765625 C-2.62890625 3.16015625 -2.62890625 3.16015625 -3.06640625 1.09765625 C-2.06640625 0.09765625 -2.06640625 0.09765625 0 0 Z " fill="#F34B1E" transform="translate(257.06640625,36.90234375)"/>
<path d="M0 0 C0 0.99 0 1.98 0 3 C-0.99 3.495 -0.99 3.495 -2 4 C-1.67 5.65 -1.34 7.3 -1 9 C-3.05078125 7.19335938 -3.05078125 7.19335938 -5.1015625 5.38671875 C-10.89890223 1.15203644 -15.42717213 0.59641923 -22.375 0.8125 C-23.62216797 0.83280273 -23.62216797 0.83280273 -24.89453125 0.85351562 C-26.92997066 0.88860941 -28.96507291 0.94240772 -31 1 C-31 0.34 -31 -0.32 -31 -1 C-21.19468842 -3.99673337 -9.84279506 -1.83121769 0 0 Z " fill="#C8816E" transform="translate(77,35)"/>
<path d="M0 0 C3.125 0.25 3.125 0.25 5 1.375 C6.65354531 4.13090884 6.51865568 6.10075452 6.125 9.25 C5 11.125 5 11.125 3.125 12.25 C0 12.5 0 12.5 -2.875 12.25 C-3.875 11.25 -3.875 11.25 -4.0078125 9 C-4.00523437 8.0925 -4.00265625 7.185 -4 6.25 C-4.00257813 5.3425 -4.00515625 4.435 -4.0078125 3.5 C-3.80766051 0.10918983 -3.44035769 0.29916154 0 0 Z M0.125 3.25 C0.125 5.23 0.125 7.21 0.125 9.25 C0.785 9.25 1.445 9.25 2.125 9.25 C3.13611093 6.20086772 3.13611093 6.20086772 2.125 3.25 C1.465 3.25 0.805 3.25 0.125 3.25 Z " fill="#6E9AAC" transform="translate(196.875,71.75)"/>
<path d="M0 0 C1.010625 0.0825 2.02125 0.165 3.0625 0.25 C5.75711986 4.29192978 5.29450889 6.4551496 5.0625 11.25 C4.0625 12.25 4.0625 12.25 0.5625 12.375 C-2.9375 12.25 -2.9375 12.25 -3.9375 11.25 C-4.03573937 9.58570949 -4.06723631 7.91718069 -4.0625 6.25 C-4.06507813 5.3425 -4.06765625 4.435 -4.0703125 3.5 C-3.86826367 0.07705515 -3.48169699 0.29631464 0 0 Z M-0.9375 7.25 C-0.9375 7.91 -0.9375 8.57 -0.9375 9.25 C0.0525 9.25 1.0425 9.25 2.0625 9.25 C2.0625 8.59 2.0625 7.93 2.0625 7.25 C1.0725 7.25 0.0825 7.25 -0.9375 7.25 Z " fill="#5799B0" transform="translate(148.9375,71.75)"/>
<path d="M0 0 C0.99 0.33 1.98 0.66 3 1 C3 3.64 3 6.28 3 9 C3.66 8.67 4.32 8.34 5 8 C5.40729228 5.67843403 5.74438677 3.3431213 6 1 C7.32 1 8.64 1 10 1 C10.35915493 8.3028169 10.35915493 8.3028169 8.9375 11.0625 C5.7970884 12.582054 3.29352683 11.79288609 0 11 C-1.62651522 7.74696956 -1.11453156 4.60774398 -1 1 C-0.67 0.67 -0.34 0.34 0 0 Z " fill="#779FAF" transform="translate(305,72)"/>
<path d="M0 0 C3.375 -0.125 3.375 -0.125 7 0 C7.66 0.66 8.32 1.32 9 2 C8.70131344 4.00546689 8.36628677 6.00577205 8 8 C8.33 8.99 8.66 9.98 9 11 C7.68 11.33 6.36 11.66 5 12 C4.67 11.34 4.34 10.68 4 10 C2.02 10.99 2.02 10.99 0 12 C0 8.04 0 4.08 0 0 Z M4 3 C5 5 5 5 5 5 Z " fill="#73A2B5" transform="translate(319,72)"/>
<path d="M0 0 C1.32 0.33 2.64 0.66 4 1 C4 3.31 4 5.62 4 8 C4.66 8.33 5.32 8.66 6 9 C6 6.36 6 3.72 6 1 C7.32 1 8.64 1 10 1 C10.08096803 2.45742463 10.13917774 3.91612807 10.1875 5.375 C10.22230469 6.18710938 10.25710938 6.99921875 10.29296875 7.8359375 C10.19628906 8.55007812 10.09960938 9.26421875 10 10 C6.77626323 12.14915785 5.73296326 12.38286803 2 12 C0 10 0 10 -0.1953125 7.6171875 C-0.17210937 6.71226563 -0.14890625 5.80734375 -0.125 4.875 C-0.10695313 3.96492188 -0.08890625 3.05484375 -0.0703125 2.1171875 C-0.04710937 1.41851562 -0.02390625 0.71984375 0 0 Z " fill="#7E9EAF" transform="translate(277,72)"/>
<path d="M0 0 C0.33 0.99 0.66 1.98 1 3 C0.07421875 4.83203125 0.07421875 4.83203125 -1.3125 6.8125 C-7.10879596 15.13325724 -6.87245657 24.56606926 -5.5 34.3125 C-5.335 35.199375 -5.17 36.08625 -5 37 C-5.66 37 -6.32 37 -7 37 C-10.85969148 30.2653943 -10.53247314 22.14316961 -8.9375 14.75 C-7.25954161 8.81080773 -4.343239 4.343239 0 0 Z " fill="#BCBDBC" transform="translate(102,33)"/>
<path d="M0 0 C0.66 0 1.32 0 2 0 C2 1.65 2 3.3 2 5 C2.99 5 3.98 5 5 5 C5.33 3.35 5.66 1.7 6 0 C6.99 0.33 7.98 0.66 9 1 C9 4.3 9 7.6 9 11 C7.68 11 6.36 11 5 11 C5 10.01 5 9.02 5 8 C4.01 8.495 4.01 8.495 3 9 C2.67 9.99 2.34 10.98 2 12 C1.01 11.67 0.02 11.34 -1 11 C-1.02688151 9.35425434 -1.04634123 7.70838587 -1.0625 6.0625 C-1.07410156 5.14597656 -1.08570313 4.22945313 -1.09765625 3.28515625 C-1 1 -1 1 0 0 Z " fill="#79A3B6" transform="translate(230,72)"/>
<path d="M0 0 C1.134375 0.020625 2.26875 0.04125 3.4375 0.0625 C3.4375 1.0525 3.4375 2.0425 3.4375 3.0625 C2.1175 3.0625 0.7975 3.0625 -0.5625 3.0625 C-0.5625 3.7225 -0.5625 4.3825 -0.5625 5.0625 C0.7575 5.3925 2.0775 5.7225 3.4375 6.0625 C3.4375 8.0625 3.4375 10.0625 3.4375 12.0625 C1.10455225 12.10491723 -1.22952567 12.10342937 -3.5625 12.0625 C-4.5625 11.0625 -4.5625 11.0625 -4.6953125 8.8125 C-4.69273437 7.905 -4.69015625 6.9975 -4.6875 6.0625 C-4.69007813 5.155 -4.69265625 4.2475 -4.6953125 3.3125 C-4.47442744 -0.42955275 -3.90581879 0.06852314 0 0 Z " fill="#769EAE" transform="translate(247.5625,71.9375)"/>
<path d="M0 0 C0.99 0.33 1.98 0.66 3 1 C3.33 3.31 3.66 5.62 4 8 C4.66 8 5.32 8 6 8 C6.33 5.36 6.66 2.72 7 0 C7.99 0.33 8.98 0.66 10 1 C10.36334661 8.38804781 10.36334661 8.38804781 8.8125 11 C6.37613976 12.34419875 4.74026253 12.35131571 2 12 C0 10 0 10 -0.1953125 7.6171875 C-0.17210937 6.71226563 -0.14890625 5.80734375 -0.125 4.875 C-0.10695312 3.96492188 -0.08890625 3.05484375 -0.0703125 2.1171875 C-0.04710937 1.41851562 -0.02390625 0.71984375 0 0 Z " fill="#6D98A9" transform="translate(159,72)"/>
<path d="M0 0 C2.31 0 4.62 0 7 0 C7.33 0.99 7.66 1.98 8 3 C6.68 3 5.36 3 4 3 C4 3.66 4 4.32 4 5 C4.99 5.33 5.98 5.66 7 6 C7 8 7 10 7 12 C4.69 12 2.38 12 0 12 C0 8.04 0 4.08 0 0 Z " fill="#6C9AAF" transform="translate(332,72)"/>
<path d="M0 0 C-1.32 0.33 -2.64 0.66 -4 1 C-4.66 4.96 -5.32 8.92 -6 13 C-5.01 13.33 -4.02 13.66 -3 14 C-3 14.66 -3 15.32 -3 16 C-0.69 16 1.62 16 4 16 C3.67 16.99 3.34 17.98 3 19 C1.55989519 18.74337755 0.1229313 18.46909179 -1.3125 18.1875 C-2.11300781 18.03667969 -2.91351563 17.88585937 -3.73828125 17.73046875 C-6.33850945 16.89067139 -7.41767951 16.22326044 -9 14 C-9.84416568 9.44454737 -9.83972762 5.30624296 -7.3125 1.375 C-4.63064217 -0.21961817 -3.06890491 -0.34098943 0 0 Z " fill="#E8532B" transform="translate(314,37)"/>
<path d="M0 0 C2.31334836 4.34407044 3.43999722 8.82483275 4.6875 13.5625 C4.92533203 14.42552734 5.16316406 15.28855469 5.40820312 16.17773438 C5.73788086 17.42200195 5.73788086 17.42200195 6.07421875 18.69140625 C6.27619873 19.44623291 6.47817871 20.20105957 6.6862793 20.97875977 C7 23 7 23 6 26 C2.7 26 -0.6 26 -4 26 C-4.33 24.68 -4.66 23.36 -5 22 C-0.545 22.99 -0.545 22.99 4 24 C3.74438677 21.6568787 3.40729228 19.32156597 3 17 C2.34 16.67 1.68 16.34 1 16 C-0.11115605 10.66645094 -0.11083416 5.43087408 0 0 Z " fill="#E75A36" transform="translate(169,38)"/>
<path d="M0 0 C3.3 0.66 6.6 1.32 10 2 C10.33 3.32 10.66 4.64 11 6 C7.37 5.67 3.74 5.34 0 5 C-0.33 6.65 -0.66 8.3 -1 10 C4.28 10.33 9.56 10.66 15 11 C15 11.33 15 11.66 15 12 C12.5622037 12.05397335 10.12560315 12.09365616 7.6875 12.125 C6.65206055 12.15013672 6.65206055 12.15013672 5.59570312 12.17578125 C1.82864604 12.21217794 0.21568296 12.14378864 -3 10 C-2.67 7.69 -2.34 5.38 -2 3 C-0.02 3 1.96 3 4 3 C2.68 2.34 1.36 1.68 0 1 C0 0.67 0 0.34 0 0 Z " fill="#EB4C26" transform="translate(185,52)"/>
<path d="M0 0 C1.32 0.33 2.64 0.66 4 1 C4 3.97 4 6.94 4 10 C4.66 10.33 5.32 10.66 6 11 C6 11.66 6 12.32 6 13 C9.63 13 13.26 13 17 13 C17 13.33 17 13.66 17 14 C15.10489301 14.08160748 13.20875496 14.13946459 11.3125 14.1875 C9.72888672 14.23970703 9.72888672 14.23970703 8.11328125 14.29296875 C4.58163401 13.96063055 2.81744571 13.11678496 0 11 C-2.1642235 7.75366476 -2.37569856 6.75698557 -2 3 C-1.34 2.01 -0.68 1.02 0 0 Z " fill="#EA481D" transform="translate(123,50)"/>
<path d="M0 0 C1.134375 0.020625 2.26875 0.04125 3.4375 0.0625 C3.4375 1.0525 3.4375 2.0425 3.4375 3.0625 C2.1175 3.0625 0.7975 3.0625 -0.5625 3.0625 C-0.5625 3.7225 -0.5625 4.3825 -0.5625 5.0625 C0.4275 5.0625 1.4175 5.0625 2.4375 5.0625 C2.4375 6.0525 2.4375 7.0425 2.4375 8.0625 C1.4475 8.0625 0.4575 8.0625 -0.5625 8.0625 C-0.8925 9.3825 -1.2225 10.7025 -1.5625 12.0625 C-2.5525 11.7325 -3.5425 11.4025 -4.5625 11.0625 C-4.58938151 9.41675434 -4.60884123 7.77088587 -4.625 6.125 C-4.63660156 5.20847656 -4.64820313 4.29195313 -4.66015625 3.34765625 C-4.49885955 -0.42668664 -3.92591522 0.06887571 0 0 Z " fill="#7A9EA8" transform="translate(268.5625,71.9375)"/>
<path d="M0 0 C0.77601563 0.00644531 1.55203125 0.01289062 2.3515625 0.01953125 C4.375 0.1875 4.375 0.1875 6.375 1.1875 C6.375 3.4975 6.375 5.8075 6.375 8.1875 C3.405 7.8575 0.435 7.5275 -2.625 7.1875 C-1.965 5.5375 -1.305 3.8875 -0.625 2.1875 C-1.615 2.5175 -2.605 2.8475 -3.625 3.1875 C-6.3125 2.75 -6.3125 2.75 -8.625 2.1875 C-5.61560247 0.44919503 -3.46557335 -0.063748 0 0 Z " fill="#F73703" transform="translate(318.625,36.8125)"/>
<path d="M0 0 C0.66 0.33 1.32 0.66 2 1 C2.4140625 3.28515625 2.4140625 3.28515625 2.625 6.0625 C2.69976562 6.98160156 2.77453125 7.90070312 2.8515625 8.84765625 C2.92503906 9.91306641 2.92503906 9.91306641 3 11 C5.64 11 8.28 11 11 11 C11.33 13.31 11.66 15.62 12 18 C11.34 18.33 10.68 18.66 10 19 C9.34 17.35 8.68 15.7 8 14 C6.700625 13.855625 5.40125 13.71125 4.0625 13.5625 C0.125 13.125 0.125 13.125 -1 12 C-1.09851171 10.16884117 -1.12972629 8.33380067 -1.125 6.5 C-1.12757813 5.4996875 -1.13015625 4.499375 -1.1328125 3.46875 C-1 1 -1 1 0 0 Z " fill="#F0552A" transform="translate(130,44)"/>
<path d="M0 0 C0 0.66 0 1.32 0 2 C-4.62 2.33 -9.24 2.66 -14 3 C-14 3.66 -14 4.32 -14 5 C-15.8984375 6.69140625 -15.8984375 6.69140625 -18.375 8.5625 C-19.59316406 9.49255859 -19.59316406 9.49255859 -20.8359375 10.44140625 C-23 12 -23 12 -25 13 C-24.34 10.69 -23.68 8.38 -23 6 C-22.01 6 -21.02 6 -20 6 C-20 5.01 -20 4.02 -20 3 C-13.12418702 0.8408662 -7.21471629 -0.35482211 0 0 Z " fill="#E7CBC2" transform="translate(60,31)"/>
<path d="M0 0 C2.97 0 5.94 0 9 0 C11.10428384 5.12919186 11.21755666 9.5610835 11 15 C10.34 15 9.68 15 9 15 C8.01 10.71 7.02 6.42 6 2 C4.35 1.67 2.7 1.34 1 1 C1.66 3.64 2.32 6.28 3 9 C2.01 9.33 1.02 9.66 0 10 C0 6.7 0 3.4 0 0 Z " fill="#F54B1A" transform="translate(243,37)"/>
<path d="M0 0 C3.375 -0.125 3.375 -0.125 7 0 C7.66 0.66 8.32 1.32 9 2 C8.01 2.33 7.02 2.66 6 3 C6 5.64 6 8.28 6 11 C4.68 11.33 3.36 11.66 2 12 C2 9.03 2 6.06 2 3 C1.01 3 0.02 3 -1 3 C-0.67 2.01 -0.34 1.02 0 0 Z " fill="#80A6B6" transform="translate(292,72)"/>
<path d="M0 0 C2.73155155 1.04441677 5.17757092 2.10736847 7.6875 3.625 C13.11511947 5.87797412 18.21188196 5.93456471 23.796875 4.0625 C25.53693315 3.33831395 27.26297337 2.57895081 28.96875 1.77734375 C29.6390625 1.52082031 30.309375 1.26429687 31 1 C31.66 1.33 32.32 1.66 33 2 C28.98170104 6.00562294 26.53294881 7.59536967 20.83227539 7.59277344 C20.10387451 7.5621582 19.37547363 7.53154297 18.625 7.5 C17.4966272 7.47341309 17.4966272 7.47341309 16.34545898 7.44628906 C11.02576437 7.24059652 6.68885 6.67934286 2 4 C0.5 1.8125 0.5 1.8125 0 0 Z " fill="#DD5030" transform="translate(39,73)"/>
<path d="M0 0 C1.670625 0.061875 1.670625 0.061875 3.375 0.125 C3.375 1.115 3.375 2.105 3.375 3.125 C2.715 3.125 2.055 3.125 1.375 3.125 C1.375 5.765 1.375 8.405 1.375 11.125 C0.055 11.125 -1.265 11.125 -2.625 11.125 C-2.625 8.485 -2.625 5.845 -2.625 3.125 C-3.615 2.795 -4.605 2.465 -5.625 2.125 C-3.625 0.125 -3.625 0.125 0 0 Z " fill="#6F9DAD" transform="translate(220.625,71.875)"/>
<path d="M0 0 C0.66386719 0.15339844 1.32773437 0.30679688 2.01171875 0.46484375 C5.60155922 1.10773021 9.17795419 1.35033991 12.8125 1.5625 C13.85180664 1.62727539 13.85180664 1.62727539 14.91210938 1.69335938 C16.60788686 1.79861453 18.30392052 1.89972863 20 2 C20 2.66 20 3.32 20 4 C16.71480525 5.09506492 14.26336585 5.09960608 10.8125 5.0625 C9.18248047 5.04896484 9.18248047 5.04896484 7.51953125 5.03515625 C6.68808594 5.02355469 5.85664062 5.01195313 5 5 C4.67 4.01 4.34 3.02 4 2 C1.98491642 1.26676204 1.98491642 1.26676204 0 1 C0 0.67 0 0.34 0 0 Z " fill="#E5B4A6" transform="translate(44,78)"/>
<path d="M0 0 C0.84611197 2.6440999 0.98877428 4.61741467 0.9375 7.4375 C0.99922644 10.95590683 1.66214763 12.82260061 3 16 C3.125 18.8125 3.125 18.8125 3 21 C3.66 21 4.32 21 5 21 C5.33 22.32 5.66 23.64 6 25 C2.54491619 23.8483054 1.89296376 23.01153326 0 20 C-1.25416448 16.33072148 -1.13303455 12.723548 -1.125 8.875 C-1.12757812 7.63492188 -1.13015625 6.39484375 -1.1328125 5.1171875 C-1 2 -1 2 0 0 Z " fill="#E35232" transform="translate(33,48)"/>
<path d="M0 0 C7.73279714 4.3325601 12.70375733 9.96338445 18 17 C17.01 17 16.02 17 15 17 C14.67 16.01 14.34 15.02 14 14 C13.34 14 12.68 14 12 14 C9.375 11.625 9.375 11.625 7 9 C7 8.34 7 7.68 7 7 C4.66785852 5.79371992 2.50357861 4.8345262 0 4 C0 2.68 0 1.36 0 0 Z " fill="#E9E9E8" transform="translate(84,11)"/>
<path d="M0 0 C0.99 0.33 1.98 0.66 3 1 C3 3.64 3 6.28 3 9 C4.65 9.33 6.3 9.66 8 10 C7.67 10.66 7.34 11.32 7 12 C4.69 12 2.38 12 0 12 C0 8.04 0 4.08 0 0 Z " fill="#6792A1" transform="translate(181,72)"/>
<path d="M0 0 C2.475 0.99 2.475 0.99 5 2 C6.43481543 9.9347022 6.43481543 9.9347022 4.75 14.0625 C4.1725 14.701875 3.595 15.34125 3 16 C2.01 16 1.02 16 0 16 C0 15.34 0 14.68 0 14 C0.99 14 1.98 14 3 14 C3 11.03 3 8.06 3 5 C2.34 4.67 1.68 4.34 1 4 C0.375 1.9375 0.375 1.9375 0 0 Z " fill="#EA5D3A" transform="translate(200,47)"/>
<path d="M0 0 C0.99 0.495 0.99 0.495 2 1 C2 1.66 2 2.32 2 3 C2.99 3.33 3.98 3.66 5 4 C5.08112454 6.58396679 5.14054748 9.16537568 5.1875 11.75 C5.22520508 12.84441406 5.22520508 12.84441406 5.26367188 13.9609375 C5.30981636 17.34486604 5.25324128 19.57858557 3.48828125 22.515625 C2.99714844 23.00546875 2.50601563 23.4953125 2 24 C2.03480469 22.28103516 2.03480469 22.28103516 2.0703125 20.52734375 C2.08908479 18.9974024 2.10728341 17.46745394 2.125 15.9375 C2.14175781 15.18533203 2.15851563 14.43316406 2.17578125 13.65820312 C2.21865121 8.70672291 1.58399375 4.69585549 0 0 Z " fill="#BF8C84" transform="translate(76,44)"/>
<path d="M0 0 C1.65 0 3.3 0 5 0 C5.125 6.75 5.125 6.75 4 9 C0.00468076 11.16888759 -2.62855218 11.01661577 -7 10 C-7 9.01 -7 8.02 -7 7 C-3.7 7 -0.4 7 3 7 C3 5.35 3 3.7 3 2 C2.01 2 1.02 2 0 2 C0 1.34 0 0.68 0 0 Z M-5 8 C-5 8.33 -5 8.66 -5 9 C-3.35 9 -1.7 9 0 9 C0 8.67 0 8.34 0 8 C-1.65 8 -3.3 8 -5 8 Z " fill="#EB502B" transform="translate(199,37)"/>
<path d="M0 0 C-2.83395931 2.32789515 -4.29511572 3.07377893 -8 4 C-8.33 7.63 -8.66 11.26 -9 15 C-9.66 14.67 -10.32 14.34 -11 14 C-11.61593211 5.03476595 -11.61593211 5.03476595 -9.4375 1.375 C-6.17757904 -0.46392977 -3.67887806 -0.28299062 0 0 Z " fill="#DD5533" transform="translate(194,37)"/>
<path d="M0 0 C0.66 0 1.32 0 2 0 C2.33 2.97 2.66 5.94 3 9 C3.33 9 3.66 9 4 9 C4.22134176 11.12368444 4.42670007 13.24904024 4.625 15.375 C4.74101562 16.55835937 4.85703125 17.74171875 4.9765625 18.9609375 C4.98429688 19.96382812 4.99203125 20.96671875 5 22 C4.34 22.66 3.68 23.32 3 24 C2.49515526 20.75073335 1.99697406 17.50047901 1.5 14.25 C1.35691406 13.32960938 1.21382812 12.40921875 1.06640625 11.4609375 C0.93105469 10.57148437 0.79570312 9.68203125 0.65625 8.765625 C0.53056641 7.94868164 0.40488281 7.13173828 0.27539062 6.29003906 C0 4 0 4 0 0 Z " fill="#DF6043" transform="translate(241,37)"/>
<path d="M0 0 C2.475 0.495 2.475 0.495 5 1 C5 1.66 5 2.32 5 3 C6.45833358 4.62514468 6.45833358 4.62514468 8 6 C7 7 7 7 3.4375 7.0625 C2.303125 7.041875 1.16875 7.02125 0 7 C0 4.69 0 2.38 0 0 Z " fill="#6D9FAF" transform="translate(244,77)"/>
<path d="M0 0 C0.66 0 1.32 0 2 0 C2.92844389 4.33273814 2.92844389 7.66726186 2 12 C1.01 11.67 0.02 11.34 -1 11 C-1.02688151 9.35425434 -1.04634123 7.70838587 -1.0625 6.0625 C-1.07410156 5.14597656 -1.08570313 4.22945313 -1.09765625 3.28515625 C-1 1 -1 1 0 0 Z " fill="#6D97AA" transform="translate(230,72)"/>
<path d="M0 0 C-1.1446875 0.2165625 -1.1446875 0.2165625 -2.3125 0.4375 C-6.04787745 2.60923108 -6.37092715 5.0782752 -7.51953125 9.1015625 C-7.67808594 9.72804688 -7.83664063 10.35453125 -8 11 C-8.66 11 -9.32 11 -10 11 C-10.33 12.32 -10.66 13.64 -11 15 C-10.58473282 4.30687023 -10.58473282 4.30687023 -6 0 C-3.50907189 -1.24546405 -2.58919267 -0.7767578 0 0 Z " fill="#E25D3A" transform="translate(131,38)"/>
<path d="M0 0 C0.99 0.33 1.98 0.66 3 1 C3 4.3 3 7.6 3 11 C2.01 11.33 1.02 11.66 0 12 C0 8.04 0 4.08 0 0 Z " fill="#6B96A7" transform="translate(173,72)"/>
<path d="M0 0 C0.99 0.495 0.99 0.495 2 1 C2 1.66 2 2.32 2 3 C2.639375 3.268125 3.27875 3.53625 3.9375 3.8125 C6 5 6 5 7 8 C5.35 8.66 3.7 9.32 2 10 C0 8 0 8 -0.1953125 6.0546875 C-0.13020833 4.03645833 -0.06510417 2.01822917 0 0 Z " fill="#E4C4BF" transform="translate(34,69)"/>
<path d="M0 0 C1.32 0 2.64 0 4 0 C3.67 1.98 3.34 3.96 3 6 C3.66 6 4.32 6 5 6 C5 6.66 5 7.32 5 8 C3.68 8 2.36 8 1 8 C0.34 8.66 -0.32 9.32 -1 10 C-0.67 6.7 -0.34 3.4 0 0 Z " fill="#FE4414" transform="translate(257,53)"/>
<path d="M0 0 C0.77601563 0.00644531 1.55203125 0.01289062 2.3515625 0.01953125 C4.375 0.1875 4.375 0.1875 6.375 1.1875 C6.375 3.4975 6.375 5.8075 6.375 8.1875 C6.045 8.1875 5.715 8.1875 5.375 8.1875 C5.375 6.2075 5.375 4.2275 5.375 2.1875 C4.75625 2.373125 4.1375 2.55875 3.5 2.75 C1.375 3.1875 1.375 3.1875 -0.625 2.1875 C-1.615 2.5175 -2.605 2.8475 -3.625 3.1875 C-6.3125 2.75 -6.3125 2.75 -8.625 2.1875 C-5.61560247 0.44919503 -3.46557335 -0.063748 0 0 Z " fill="#F94818" transform="translate(318.625,36.8125)"/>
<path d="M0 0 C1.65 0 3.3 0 5 0 C4.01 0.495 4.01 0.495 3 1 C3 1.66 3 2.32 3 3 C3.99 3 4.98 3 6 3 C6 3.99 6 4.98 6 6 C4.02 6.33 2.04 6.66 0 7 C0 4.69 0 2.38 0 0 Z " fill="#7AA8B9" transform="translate(265,74)"/>
<path d="M0 0 C0.99 0 1.98 0 3 0 C3.66 1.98 4.32 3.96 5 6 C4.01 6.66 3.02 7.32 2 8 C1.01 7.67 0.02 7.34 -1 7 C-0.67 4.69 -0.34 2.38 0 0 Z " fill="#FC481B" transform="translate(160,45)"/>
<path d="M0 0 C1.4540625 0.0309375 1.4540625 0.0309375 2.9375 0.0625 C2.9375 1.0525 2.9375 2.0425 2.9375 3.0625 C0.9575 3.0625 -1.0225 3.0625 -3.0625 3.0625 C-3.0625 5.7025 -3.0625 8.3425 -3.0625 11.0625 C-3.3925 11.0625 -3.7225 11.0625 -4.0625 11.0625 C-4.08938151 9.41675434 -4.10884123 7.77088587 -4.125 6.125 C-4.13660156 5.20847656 -4.14820313 4.29195313 -4.16015625 3.34765625 C-4.00919455 -0.18484756 -3.60673121 0.07360676 0 0 Z " fill="#6290A2" transform="translate(149.0625,71.9375)"/>
<path d="M0 0 C2 2 2 2 2.1875 4.5625 C2 7 2 7 1 8 C-0.66617115 8.04063832 -2.33388095 8.042721 -4 8 C-3.67 7.01 -3.34 6.02 -3 5 C-2.34 5 -1.68 5 -1 5 C-0.67 3.35 -0.34 1.7 0 0 Z " fill="#5B90A6" transform="translate(152,76)"/>
<path d="M0 0 C0.66 0 1.32 0 2 0 C1.67 2.64 1.34 5.28 1 8 C-1.97 8 -4.94 8 -8 8 C-8 7.67 -8 7.34 -8 7 C-6.02 6.67 -4.04 6.34 -2 6 C-1.34 4.02 -0.68 2.04 0 0 Z " fill="#E26F4D" transform="translate(356,37)"/>
<path d="M0 0 C0.99 0.33 1.98 0.66 3 1 C2.34 1 1.68 1 1 1 C1 1.99 1 2.98 1 4 C2.98 3.67 4.96 3.34 7 3 C7 3.99 7 4.98 7 6 C4.69 6 2.38 6 0 6 C0 4.02 0 2.04 0 0 Z " fill="#65909F" transform="translate(332,78)"/>
<path d="M0 0 C0.99 0.33 1.98 0.66 3 1 C0.32968716 3.67733998 -1.03721441 4.00280229 -4.890625 4.29296875 C-6.34404009 4.27314945 -7.79731167 4.23754845 -9.25 4.1875 C-9.99507813 4.17396484 -10.74015625 4.16042969 -11.5078125 4.14648438 C-13.33885416 4.11127204 -15.16952169 4.05746851 -17 4 C-17 3.67 -17 3.34 -17 3 C-15.94039063 2.95101562 -14.88078125 2.90203125 -13.7890625 2.8515625 C-12.40101503 2.77653291 -11.01299549 2.70098515 -9.625 2.625 C-8.57699219 2.57859375 -8.57699219 2.57859375 -7.5078125 2.53125 C-3.29814173 2.40500502 -3.29814173 2.40500502 0 0 Z " fill="#D95B39" transform="translate(324,60)"/>
<path d="M0 0 C1.98 0 3.96 0 6 0 C6 0.66 6 1.32 6 2 C4.68 2 3.36 2 2 2 C2 3.98 2 5.96 2 8 C1.01 7.67 0.02 7.34 -1 7 C-0.67 4.69 -0.34 2.38 0 0 Z " fill="#DC5F3F" transform="translate(305,55)"/>
<path d="M0 0 C0.99 0.33 1.98 0.66 3 1 C3 3.64 3 6.28 3 9 C2.01 8.67 1.02 8.34 0 8 C0 5.36 0 2.72 0 0 Z " fill="#81A2B7" transform="translate(312,72)"/>
<path d="M0 0 C1.32 0.33 2.64 0.66 4 1 C4 2.65 4 4.3 4 6 C2.68 6 1.36 6 0 6 C0 4.02 0 2.04 0 0 Z " fill="#92A9B8" transform="translate(277,72)"/>
<path d="M0 0 C0 0.99 0 1.98 0 3 C0.33 3.33 0.66 3.66 1 4 C1.04063832 5.66617115 1.042721 7.33388095 1 9 C0.34 8.67 -0.32 8.34 -1 8 C-1.66 8.66 -2.32 9.32 -3 10 C-3.36923077 4.58461538 -3.36923077 4.58461538 -1.5 1.625 C-1.005 1.08875 -0.51 0.5525 0 0 Z " fill="#EC3F1D" transform="translate(37,42)"/>
<path d="M0 0 C1.32 0.33 2.64 0.66 4 1 C3.67 3.31 3.34 5.62 3 8 C1.35 8.33 -0.3 8.66 -2 9 C-1.01 8.67 -0.02 8.34 1 8 C0.67 5.36 0.34 2.72 0 0 Z " fill="#E76445" transform="translate(138,37)"/>
<path d="M0 0 C-3.96 3.465 -3.96 3.465 -8 7 C-8 4.37886292 -7.68707555 2.49064888 -7 0 C-2.25 -1.125 -2.25 -1.125 0 0 Z " fill="#E9A495" transform="translate(44,37)"/>
<path d="M0 0 C2.31 0 4.62 0 7 0 C7 0.99 7 1.98 7 3 C4.36 3 1.72 3 -1 3 C-0.67 2.01 -0.34 1.02 0 0 Z " fill="#7595A0" transform="translate(244,72)"/>
<path d="M0 0 C0.33 0.66 0.66 1.32 1 2 C-0.4726862 5.27263601 -1.42695432 6.72014048 -4.6875 8.3125 C-5.450625 8.539375 -6.21375 8.76625 -7 9 C-6.02180976 7.68677212 -5.0424189 6.37443848 -4.0625 5.0625 C-3.51722656 4.33160156 -2.97195312 3.60070312 -2.41015625 2.84765625 C-1 1 -1 1 0 0 Z " fill="#B99389" transform="translate(77,68)"/>
<path d="M0 0 C0.66 0 1.32 0 2 0 C2 0.99 2 1.98 2 3 C3.65 3 5.3 3 7 3 C7.33 3.66 7.66 4.32 8 5 C5.6875 5.625 5.6875 5.625 3 6 C2.01 5.34 1.02 4.68 0 4 C0 2.68 0 1.36 0 0 Z " fill="#F94010" transform="translate(346,44)"/>
<path d="M0 0 C-3.28804981 2.91227269 -5.59885603 4.49701212 -10 5 C-9 2 -9 2 -6.125 0.25 C-3 -1 -3 -1 0 0 Z " fill="#E7E7E7" transform="translate(36,8)"/>
<path d="M0 0 C0.66 0.66 1.32 1.32 2 2 C1.625 4.625 1.625 4.625 1 7 C0.01 7 -0.98 7 -2 7 C-1.125 1.125 -1.125 1.125 0 0 Z " fill="#81A9BB" transform="translate(285,76)"/>
<path d="M0 0 C3.375 -0.1875 3.375 -0.1875 7 0 C7.66 0.99 8.32 1.98 9 3 C6.03 2.67 3.06 2.34 0 2 C0 1.34 0 0.68 0 0 Z " fill="#7197A6" transform="translate(319,72)"/>
<path d="M0 0 C-2.93828597 2.50298434 -5.17902761 3.46930939 -9 4 C-9 3.01 -9 2.02 -9 1 C-6.04335481 -0.4783226 -3.25770263 -0.06032783 0 0 Z " fill="#EE471E" transform="translate(194,37)"/>
<path d="M0 0 C2.4375 0.375 2.4375 0.375 5 1 C5.33 1.66 5.66 2.32 6 3 C3.36 3 0.72 3 -2 3 C-1.34 2.01 -0.68 1.02 0 0 Z " fill="#B39E9B" transform="translate(68,77)"/>
<path d="M0 0 C0.66 0 1.32 0 2 0 C2.33 0.66 2.66 1.32 3 2 C5.12576782 2.46651207 5.12576782 2.46651207 7.5625 2.625 C8.38878906 2.69976562 9.21507812 2.77453125 10.06640625 2.8515625 C10.70449219 2.90054688 11.34257812 2.94953125 12 3 C12 3.33 12 3.66 12 4 C8.37 4 4.74 4 1 4 C0.67 2.68 0.34 1.36 0 0 Z " fill="#D94F26" transform="translate(245,60)"/>
<path d="M0 0 C0.66 0.33 1.32 0.66 2 1 C1.67 1.99 1.34 2.98 1 4 C0.67 3.67 0.34 3.34 0 3 C-0.33 3.66 -0.66 4.32 -1 5 C-1.99 5 -2.98 5 -4 5 C-4 4.01 -4 3.02 -4 2 C-2.125 0.9375 -2.125 0.9375 0 0 Z " fill="#669CB0" transform="translate(152,74)"/>
<path d="M0 0 C1.32 1.65 2.64 3.3 4 5 C3.01 6.485 3.01 6.485 2 8 C0.4375 5.6875 0.4375 5.6875 -1 3 C-0.67 2.01 -0.34 1.02 0 0 Z " fill="#BCBCBC" transform="translate(97,70)"/>
</svg>
